<svg width="16" height="16" viewBox="0 0 16 16" fill="none" xmlns="http://www.w3.org/2000/svg">
  <path d="M2 4.25C2 3.97386 2.22386 3.75 2.5 3.75H7C7.27614 3.75 7.5 3.97386 7.5 4.25C7.5 4.52614 7.27614 4.75 7 4.75H2.5C2.22386 4.75 2 4.52614 2 4.25Z" fill="currentColor"/>
  <path d="M8.5 4.25C8.5 3.97386 8.72386 3.75 9 3.75H13.5C13.7761 3.75 14 3.97386 14 4.25C14 4.52614 13.7761 4.75 13.5 4.75H9C8.72386 4.75 8.5 4.52614 8.5 4.25Z" fill="currentColor"/>
  <path d="M2 8C2 7.72386 2.22386 7.5 2.5 7.5H4.5C4.77614 7.5 5 7.72386 5 8C5 8.27614 4.77614 8.5 4.5 8.5H2.5C2.22386 8.5 2 8.27614 2 8Z" fill="currentColor"/>
  <path d="M6 8C6 7.72386 6.22386 7.5 6.5 7.5H13.5C13.7761 7.5 14 7.72386 14 8C14 8.27614 13.7761 8.5 13.5 8.5H6.5C6.22386 8.5 6 8.27614 6 8Z" fill="currentColor"/>
  <path d="M2 11.75C2 11.4739 2.22386 11.25 2.5 11.25H9C9.27614 11.25 9.5 11.4739 9.5 11.75C9.5 12.0261 9.27614 12.25 9 12.25H2.5C2.22386 12.25 2 12.0261 2 11.75Z" fill="currentColor"/>
  <path d="M10.5 11.75C10.5 11.4739 10.7239 11.25 11 11.25H13.5C13.7761 11.25 14 11.4739 14 11.75C14 12.0261 13.7761 12.25 13.5 12.25H11C10.7239 12.25 10.5 12.0261 10.5 11.75Z" fill="currentColor"/>
  <circle cx="8" cy="4.25" r="1.5" fill="currentColor"/>
  <circle cx="5.5" cy="8" r="1.5" fill="currentColor"/>
  <circle cx="10" cy="11.75" r="1.5" fill="currentColor"/>
</svg>
